HIERARCHY
ROOT Hips
{
	OFFSET 0.00000 0.00000 0.00000
	CHANNELS 6 Xposition Yposition Zposition Yrotation Zrotation Xrotation 
	JOINT Lumbar
	{
		OFFSET 0 0 0
		CHANNELS 3 Zrotation Xrotation Yrotation
		JOINT Neck
		{
			OFFSET 0.00 0.2701 0.00
			CHANNELS 3 Zrotation Xrotation Yrotation
			End Site
			{
				OFFSET 0.00 0.1379 0.00
			}
		}
		JOINT RightShoulder
		{
			OFFSET 0.0119 0.2289 0.1181
			CHANNELS 3 Zrotation Xrotation Yrotation
			JOINT RightElbow
			{
				OFFSET 0.00 -0.1475 0.00
				CHANNELS 2 Zrotation Yrotation
				JOINT RightWrist
				{
					OFFSET 0.00 -0.1605 0.00
					CHANNELS 2 Zrotation Xrotation
					End Site
					{
						OFFSET 0.0040 -0.1068 0.0006
					}
				}
			}
		}
		JOINT LeftShoulder
		{
			OFFSET 0.0119 0.2289 -0.1181
			CHANNELS 3 Zrotation Xrotation Yrotation
			JOINT LeftElbow
			{
				OFFSET 0.00 -0.1475 0.00
				CHANNELS 2 Zrotation Yrotation
				JOINT LeftWrist
				{
					OFFSET 0.00 -0.1605 0.00
					CHANNELS 2 Zrotation Xrotation
					End Site
					{
						OFFSET 0.0040 -0.1068 -0.0006
					}
				}
			}
		}
	}
	JOINT RightHip
	{
		OFFSET 0.0316 -0.0424 0.0458
		CHANNELS 3 Zrotation Xrotation Yrotation
		JOINT RightKnee
		{
			OFFSET 0.00 -0.2438 0.00
			CHANNELS 1 Zrotation
			JOINT RightAnkle
			{
				OFFSET 0.00 -0.2449 0.00
				CHANNELS 3 Zrotation Xrotation Yrotation
				End Site
				{
					OFFSET 0.1237 -0.0542 0.0051
				}
			}
		}
	}
	JOINT LeftHip
	{
		OFFSET 0.0316 -0.0424 -0.0458
		CHANNELS 3 Zrotation Xrotation Yrotation
		JOINT LeftKnee
		{
			OFFSET 0.00 -0.2438 0.00
			CHANNELS 1 Zrotation
			JOINT LeftAnkle
			{
				OFFSET 0.00 -0.2449 0.00
				CHANNELS 3 Zrotation Xrotation Yrotation
				End Site
				{
					OFFSET 0.1237 -0.0542 -0.0051
				}
			}
		}
	}
}
MOTION
Frames: 23
Frame Time: 0.02
-0 0.57926 -0 178.9856 0 -3.70312 5.12031 3.45879 -0.38082 -32.77279 3.58757 1.87096 1.50833 -69.33878 -90.01164 21.28607 72.00824 -30.47009 -2.48456 21.30381 64.73239 75.48178 17.23898 -85.64307 -23.00144 5.19535 -1.51534 6.36722 -5.57608 -8.58848 -0.02487 -4.52649 -10.60204 -1.96752 2.82368 3.53899 -7.36081 5.71882 6.36749 10.13325
6e-05 0.57927 4e-05 178.94789 0 -3.70638 5.09673 3.46024 -0.36325 -32.83067 3.54963 1.87096 1.49481 -69.32562 -90.01162 21.27882 71.91368 -30.51116 -2.47192 21.27851 64.79384 75.5954 17.21403 -86.08147 -23.14685 5.07831 -1.50982 6.3702 -5.49665 -8.57919 -0.05327 -4.56244 -10.65694 -1.96616 2.81991 3.53657 -7.36088 5.70407 6.36687 10.16819
0.00011 0.57928 8e-05 178.91049 0 -3.70963 5.07325 3.46164 -0.3459 -32.88896 3.51174 1.87108 1.48211 -69.31232 -90.01159 21.27163 71.82012 -30.55194 -2.4594 21.2542 64.85514 75.70705 17.18979 -86.51508 -23.29128 4.96243 -1.50433 6.37313 -5.41791 -8.56996 -0.08144 -4.59815 -10.71137 -1.96481 2.81617 3.53431 -7.36092 5.68946 6.36628 10.20273
0.00017 0.5793 0.00012 178.87379 0 -3.71286 5.04996 3.46292 -0.32919 -32.9486 3.47384 1.87174 1.46999 -69.299 -90.01158 21.26422 71.72859 -30.59305 -2.44712 21.23259 64.91655 75.81364 17.16757 -86.9338 -23.43321 4.85021 -1.49886 6.37597 -5.34094 -8.5609 -0.10895 -4.63322 -10.76449 -1.96347 2.81252 3.53283 -7.36083 5.6752 6.36579 10.23606
0.00023 0.57931 0.00016 178.83318 0 -3.71621 5.02572 3.46488 -0.30902 -33.00006 3.43614 1.86958 1.45164 -69.28659 -90.01154 21.2575 71.62498 -30.63373 -2.4334 21.19541 64.97749 75.94913 17.13394 -87.43133 -23.58836 4.71881 -1.49321 6.37935 -5.25434 -8.55093 -0.13996 -4.67163 -10.82464 -1.96207 2.80841 3.52742 -7.36137 5.65899 6.36476 10.27586
0.00028 0.57932 0.0002 178.80101 0 -3.71929 5.0035 3.46539 -0.29621 -33.06945 3.39795 1.87335 1.44861 -69.27174 -90.01153 21.24966 71.54795 -30.67441 -2.42287 21.19207 65.03929 76.02192 17.12494 -87.76171 -23.71543 4.62797 -1.48799 6.38155 -5.18834 -8.54288 -0.16351 -4.70294 -10.86981 -1.96078 2.80527 3.53019 -7.3606 5.64698 6.36486 10.30189
0.00033 0.57932 0.00024 178.79088 0 -3.72169 4.98654 3.4619 -0.30387 -33.18643 3.35822 1.89469 1.47339 -69.25364 -90.01159 21.23573 71.539 -30.72294 -2.42033 21.27825 65.10563 75.92899 17.18255 -87.62305 -23.76561 4.65169 -1.48354 6.38055 -5.17818 -8.54035 -0.16654 -4.71484 -10.87365 -1.95993 2.80496 3.55764 -7.35599 5.64624 6.3685 10.28972
0.00037 0.57932 0.00027 178.78945 0 -3.7238 4.97166 3.45694 -0.31894 -33.32202 3.31795 1.92179 1.5176 -69.23213 -90.01148 21.22134 71.55916 -30.76974 -2.4213 21.39945 65.17229 75.77104 17.26538 -87.31736 -23.78762 4.71584 -1.47958 6.37833 -5.18893 -8.53974 -0.16202 -4.71954 -10.86239 -1.95916 2.80562 3.59301 -7.35011 5.64979 6.37323 10.26371
0.00041 0.57933 0.00031 178.78488 0 -3.72599 4.95603 3.45261 -0.33053 -33.45045 3.27806 1.94559 1.56076 -69.21027 -90.01169 21.20888 71.56783 -30.81273 -2.42106 21.50723 65.23779 75.63815 17.33769 -87.09208 -23.82187 4.75997 -1.47568 6.37661 -5.19085 -8.53807 -0.16093 -4.7274 -10.85799 -1.95828 2.80576 3.62343 -7.34492 5.65155 6.37715 10.24407
0.00046 0.57933 0.00035 178.77704 0 -3.72842 4.93962 3.44841 -0.34256 -33.57322 3.23777 1.97245 1.56585 -69.19764 -90.01166 21.18857 71.56386 -30.87655 -2.41869 21.60431 65.3085 75.52517 17.40597 -86.84571 -23.85751 4.81133 -1.47068 6.3751 -5.19014 -8.53706 -0.1599 -4.73572 -10.8535 -1.95772 2.80622 3.65954 -7.33915 5.65259 6.38231 10.22393
0.0005 0.57933 0.00038 178.77788 0 -3.73028 4.92528 3.44364 -0.35546 -33.71239 3.19798 1.99405 1.66139 -69.16344 -90.01113 21.18525 71.59975 -30.89475 -2.42222 21.73222 65.36725 75.35409 17.48867 -86.6062 -23.88476 4.85688 -1.46796 6.37288 -5.19961 -8.53527 -0.15688 -4.74139 -10.84574 -1.95648 2.80624 3.6857 -7.3344 5.65621 6.38526 10.20172
0.00051 0.57933 0.00043 178.80226 0 -3.73058 4.91632 3.43724 -0.36885 -33.89077 3.16145 2.00179 1.94625 -69.08242 -90.01283 21.22218 71.68282 -30.80417 -2.43594 21.93576 65.40134 75.04576 17.60462 -86.4055 -23.88557 4.88006 -1.47229 6.36891 -5.23449 -8.52984 -0.15081 -4.74139 -10.83171 -1.95373 2.80484 3.68203 -7.33194 5.66543 6.38101 10.17558
0.00051 0.57932 0.00047 178.83479 0 -3.73031 4.90926 3.43037 -0.38289 -34.08525 3.12515 2.00361 2.33204 -68.97671 -90.01011 21.27724 71.81603 -30.6653 -2.45663 22.17002 65.42057 74.67794 17.7342 -86.22224 -23.8808 4.89562 -1.47867 6.36427 -5.27844 -8.52385 -0.14284 -4.73902 -10.81512 -1.95015 2.80296 3.66814 -7.33077 5.67724 6.37467 10.14812
0.00052 0.57931 0.00051 178.86244 0 -3.73033 4.90128 3.424 -0.39664 -34.27339 3.08756 2.00679 2.70791 -68.87559 -90.01117 21.32878 71.96205 -30.53673 -2.47733 22.38994 65.44262 74.335 17.85792 -86.04372 -23.88528 4.912 -1.48361 6.36 -5.31666 -8.51869 -0.13543 -4.73776 -10.80031 -1.94675 2.8013 3.65921 -7.32951 5.68811 6.36982 10.12235
0.00053 0.5793 0.00056 178.89521 0 -3.73023 4.89386 3.41644 -0.41054 -34.4582 3.05482 2.01588 2.93198 -68.80589 -90.01807 21.36144 71.95623 -30.45456 -2.48399 22.60975 65.48634 74.00667 17.98149 -85.80246 -23.8605 4.93985 -1.49096 6.35545 -5.36243 -8.51082 -0.12929 -4.73599 -10.78228 -1.94442 2.79971 3.64922 -7.32587 5.69791 6.36266 10.09158
0.00054 0.57929 0.0006 178.9193 0 -3.73021 4.88538 3.41119 -0.4243 -34.65333 3.01221 2.01106 3.49684 -68.66047 -89.99504 21.4364 72.28143 -30.26771 -2.52242 22.84031 65.47507 73.62485 18.1078 -85.70249 -23.89561 4.94286 -1.49343 6.35128 -5.39433 -8.50887 -0.11983 -4.73496 -10.77067 -1.93936 2.7978 3.63888 -7.32782 5.71077 6.35989 10.07097
0.00057 0.57926 0.00063 178.91612 0 -3.73089 4.87601 3.41295 -0.43656 -34.87423 2.94097 1.97028 4.9707 -68.34781 -90.03268 21.63417 73.48072 -29.77159 -2.63927 23.06205 65.36713 73.19357 18.24064 -85.95122 -24.09458 4.86723 -1.48457 6.34883 -5.3857 -8.5201 -0.1042 -4.73547 -10.77658 -1.92965 2.79538 3.63047 -7.3422 5.72921 6.36899 10.07957
0.00062 0.57921 0.00066 178.90413 0 -3.73158 4.86484 3.41689 -0.44883 -35.10432 2.8601 1.91552 6.7854 -67.95164 -90.01336 21.87119 75.01628 -29.17594 -2.78934 23.29963 65.19314 72.69514 18.374 -86.34828 -24.35207 4.76897 -1.47006 6.3467 -5.36259 -8.53814 -0.08474 -4.73707 -10.78942 -1.91667 2.79261 3.62207 -7.36267 5.75112 6.38267 10.09818
0.00066 0.57917 0.0007 178.89695 0 -3.73204 4.85309 3.41962 -0.46159 -35.32972 2.78447 1.86641 8.44865 -67.57211 -89.92737 22.08433 76.41611 -28.64924 -2.92905 23.54954 65.01758 72.17296 18.50701 -86.70398 -24.58814 4.68858 -1.45661 6.34409 -5.34614 -8.55496 -0.06551 -4.73887 -10.79954 -1.9035 2.7898 3.61321 -7.38215 5.7728 6.39483 10.1119
0.00068 0.57914 0.00073 178.88657 0 -3.7335 4.84809 3.42357 -0.47208 -35.55914 2.70501 1.81987 10.10054 -67.28777 -90.23371 22.32669 77.74621 -28.02829 -3.04867 23.71621 64.98138 71.878 18.64594 -86.95445 -24.81294 4.57558 -1.4503 6.34287 -5.33014 -8.56296 -0.05301 -4.73752 -10.80716 -1.89763 2.78774 3.60542 -7.39418 5.78858 6.40479 10.12764
0.00077 0.57909 0.00076 178.88077 0 -3.73284 4.82761 3.4251 -0.48755 -35.78052 2.63149 1.76498 11.85615 -66.77801 -89.70725 22.5134 79.29993 -27.57113 -3.21838 24.06199 64.63125 71.0943 18.76628 -87.45378 -25.06165 4.52565 -1.42687 6.33884 -5.30908 -8.59206 -0.02509 -4.74318 -10.8224 -1.87546 2.78411 3.59617 -7.42312 5.8178 6.42017 10.14077
0.00103 0.57897 0.00081 178.8886 0 -3.72683 4.77254 3.42286 -0.5142 -35.98998 2.57467 1.68812 13.80889 -65.7304 -86.91427 22.56905 81.38754 -27.67075 -3.51317 24.87638 63.49872 68.97775 18.88831 -88.64774 -25.47883 4.65073 -1.36499 6.32686 -5.28235 -8.66845 0.03996 -4.76656 -10.85069 -1.81184 2.77575 3.57739 -7.49753 5.88013 6.45176 10.15125
0.00137 0.57882 0.00086 178.90146 0 -3.7186 4.70024 3.41741 -0.54608 -36.18764 2.52462 1.60353 15.85346 -64.4462 -83.28276 22.5606 83.68281 -27.9228 -3.85721 25.87312 62.03896 66.37038 18.98187 -90.07707 -25.89699 4.84017 -1.28463 6.31207 -5.25026 -8.76759 0.12112 -4.79718 -10.88747 -1.73145 2.76592 3.55811 -7.58853 5.95626 6.48823 10.15756
